<?xml version="1.0" encoding="UTF-8"?><svg id="Calque_1" xmlns="http://www.w3.org/2000/svg" xmlns:xlink="http://www.w3.org/1999/xlink" viewBox="0 0 552.76 249.45"><defs><linearGradient id="Dégradé_MangMap" x1="125.58" y1="225.49" x2="125.58" y2="11.77" gradientUnits="userSpaceOnUse"><stop offset=".15" stop-color="#4160a5"/><stop offset=".28" stop-color="#486c8c"/><stop offset=".71" stop-color="#61923f"/></linearGradient><linearGradient id="Dégradé_sans_nom_42" x1="125.96" y1="247.12" x2="125.96" y2="2.33" gradientUnits="userSpaceOnUse"><stop offset="0" stop-color="#3d599a"/><stop offset=".19" stop-color="#446488"/><stop offset="1" stop-color="#61923f"/></linearGradient></defs><g><path d="M41.62,120.43c18.47-3.97,18.04-11.08,30.31-13.72,14.75-3.17,15.75,.59,25.24,.59,5.74,0,8.97-2.92,12.38-1.1,2.38,1.27,4.47,3.71,5.18,5.8,.08,.78,.16,1.55,.24,2.36,1.15,11.31,2.67,26.36,3.31,42.84-34.05,.93-59.9,12.08-77.17,33.3,1.81,2.33,3.7,4.6,5.69,6.78,15.67-20.01,39.78-30.59,71.72-31.46,.06,3.52,.07,7.09,.03,10.68-20.87,5.69-40.9,21.14-50.51,38.65,2.41,1.55,4.88,3.03,7.42,4.39,8.01-14.79,25.06-28.3,42.82-33.94-.33,7.59-.98,15.21-2.04,22.66-10.24,2.51-17.1,8.62-21.59,19.27,2.78,.85,5.61,1.58,8.47,2.2,2.73-5.95,6.35-9.76,11.5-11.9-.9,4.57-2.01,9.02-3.3,13.34,4.79,.66,9.67,1.02,14.63,1.02,.86,0,1.7-.04,2.56-.06,4.53-16.82,6.41-35.12,6.8-52.83,5.7,1.81,10.74,5.19,15.03,10.19,7.54,8.77,12.21,22.29,12.78,36.07,2.87-1.06,5.67-2.25,8.41-3.54-.78-9.62-3.27-18.92-7.28-26.91,11.16,1.82,19.83,7.09,25.91,15.72,2.31-1.73,4.53-3.57,6.69-5.48-8.68-12-21.75-18.69-38.38-19.51-.52-.67-1.05-1.34-1.59-1.98-5.92-6.88-13.26-11.45-21.5-13.5-.03-6.88-.24-13.61-.58-20.06,32.77,2.67,57.62,16.98,74.07,42.64,1.94-2.36,3.77-4.8,5.5-7.32-18.09-26.37-45.45-41.45-80.1-44.03-.75-10.97-1.76-20.86-2.57-28.93-.08-.79-.16-1.54-.23-2.3,0,0,0-.01,0-.02-.26-2.53-.17-5.75,.02-7.37,1.46-1.97,4.23-3.07,9.17-.93,4.73,2.04,11.22,6.23,23.64,3.08,10.36-2.63,10.28-1.45,21.11,2.88,11.18,4.47,35.69,6.91,46.6-1.09-8.55-50.87-52.77-89.64-106.07-89.64S25.35,58.79,19.12,112.29c.8,6.68,11.24,10.57,22.5,8.14Z" style="fill:url(#Dégradé_MangMap);"/><circle cx="125.96" cy="124.72" r="117" style="fill:none; stroke:url(#Dégradé_sans_nom_42); stroke-miterlimit:10; stroke-width:10.79px;"/><path d="M41.62,120.43c18.47-3.97,18.04-11.08,30.31-13.72,14.75-3.17,15.75,.59,25.24,.59,5.74,0,8.97-2.92,12.38-1.1,2.38,1.27,4.47,3.71,5.18,5.8,.08,.78,.16,1.55,.24,2.36,1.15,11.31,2.67,26.36,3.31,42.84-34.05,.93-59.9,12.08-77.17,33.3,1.81,2.33,3.7,4.6,5.69,6.78,15.67-20.01,39.78-30.59,71.72-31.46,.06,3.52,.07,7.09,.03,10.68-20.87,5.69-40.9,21.14-50.51,38.65,2.41,1.55,4.88,3.03,7.42,4.39,8.01-14.79,25.06-28.3,42.82-33.94-.33,7.59-.98,15.21-2.04,22.66-10.24,2.51-17.1,8.62-21.59,19.27,2.78,.85,5.61,1.58,8.47,2.2,2.73-5.95,6.35-9.76,11.5-11.9-.9,4.57-2.01,9.02-3.3,13.34,4.79,.66,9.67,1.02,14.63,1.02,.86,0,1.7-.04,2.56-.06,4.53-16.82,6.41-35.12,6.8-52.83,5.7,1.81,10.74,5.19,15.03,10.19,7.54,8.77,12.21,22.29,12.78,36.07,2.87-1.06,5.67-2.25,8.41-3.54-.78-9.62-3.27-18.92-7.28-26.91,11.16,1.82,19.83,7.09,25.91,15.72,2.31-1.73,4.53-3.57,6.69-5.48-8.68-12-21.75-18.69-38.38-19.51-.52-.67-1.05-1.34-1.59-1.98-5.92-6.88-13.26-11.45-21.5-13.5-.03-6.88-.24-13.61-.58-20.06,32.77,2.67,57.62,16.98,74.07,42.64,1.94-2.36,3.77-4.8,5.5-7.32-18.09-26.37-45.45-41.45-80.1-44.03-.75-10.97-1.76-20.86-2.57-28.93-.08-.79-.16-1.54-.23-2.3,0,0,0-.01,0-.02-.26-2.53-.17-5.75,.02-7.37,1.46-1.97,4.23-3.07,9.17-.93,4.73,2.04,11.22,6.23,23.64,3.08,10.36-2.63,10.28-1.45,21.11,2.88,11.18,4.47,35.69,6.91,46.6-1.09-8.55-50.87-52.77-89.64-106.07-89.64S25.35,58.79,19.12,112.29c.8,6.68,11.24,10.57,22.5,8.14Z" style="fill:#fff;"/><circle cx="125.96" cy="124.72" r="117" style="fill:none; stroke:#fff; stroke-miterlimit:10; stroke-width:10.79px;"/></g><path d="M407.35,117.63c-4.7,0-8.91-1.13-12.62-3.39-3.71-2.26-6.65-5.34-8.81-9.23-2.17-3.9-3.25-8.29-3.25-13.18s1.13-9.37,3.39-13.27c2.26-3.9,5.34-6.97,9.23-9.23,3.9-2.26,8.29-3.39,13.18-3.39s9.17,1.13,13.04,3.39c3.87,2.26,6.93,5.34,9.19,9.23,2.26,3.9,3.42,8.32,3.48,13.27l-3.15,1.58c0,4.58-1.04,8.69-3.11,12.34-2.07,3.65-4.89,6.54-8.44,8.67-3.56,2.14-7.59,3.2-12.11,3.2Zm1.11-7.05c3.46,0,6.54-.82,9.23-2.46,2.69-1.64,4.83-3.88,6.4-6.73,1.58-2.84,2.37-6.03,2.37-9.56s-.79-6.79-2.37-9.6c-1.58-2.81-3.71-5.06-6.4-6.72-2.69-1.67-5.77-2.51-9.23-2.51s-6.48,.84-9.23,2.51c-2.75,1.67-4.93,3.91-6.54,6.72-1.61,2.82-2.41,6.02-2.41,9.6s.8,6.71,2.41,9.56c1.61,2.85,3.79,5.09,6.54,6.73,2.75,1.64,5.83,2.46,9.23,2.46Zm21.71,6.59c-1.11,0-2.06-.35-2.83-1.07-.77-.71-1.16-1.66-1.16-2.83v-15.31l1.76-8.07,6.22,1.95v21.43c0,1.17-.37,2.12-1.11,2.83-.74,.71-1.7,1.07-2.88,1.07Z" style="fill:#fff;"/><path d="M447.24,117.16c-1.24,0-2.21-.35-2.92-1.07-.71-.71-1.07-1.66-1.07-2.83v-42.87c0-1.24,.36-2.21,1.07-2.92,.71-.71,1.68-1.07,2.92-1.07s2.12,.36,2.83,1.07c.71,.71,1.07,1.68,1.07,2.92v42.87c0,1.17-.36,2.12-1.07,2.83-.71,.71-1.66,1.07-2.83,1.07Zm39.34,0c-1.17,0-2.13-.37-2.88-1.11-.74-.74-1.11-1.67-1.11-2.78v-23.66c0-3.77-.7-6.85-2.09-9.23-1.39-2.38-3.3-4.18-5.71-5.38-2.41-1.21-5.16-1.81-8.26-1.81-2.91,0-5.52,.57-7.84,1.72-2.32,1.14-4.16,2.69-5.52,4.64-1.36,1.95-2.04,4.19-2.04,6.72h-5.38c.12-3.9,1.16-7.38,3.11-10.44,1.95-3.06,4.56-5.49,7.84-7.28,3.28-1.79,6.93-2.69,10.95-2.69,4.33,0,8.21,.91,11.64,2.74,3.43,1.83,6.16,4.5,8.17,8.03,2.01,3.52,3.02,7.86,3.02,12.99v23.66c0,1.11-.37,2.04-1.11,2.78-.74,.74-1.67,1.11-2.78,1.11Z" style="fill:#fff;"/><path d="M522.37,117.63c-4.82,0-9.09-1.1-12.8-3.3-3.71-2.19-6.62-5.24-8.72-9.14-2.1-3.9-3.16-8.35-3.16-13.36s1.11-9.56,3.34-13.45c2.23-3.9,5.27-6.94,9.14-9.14,3.86-2.19,8.3-3.29,13.32-3.29s9.35,1.1,13.22,3.29c3.86,2.2,6.9,5.24,9.09,9.14,2.19,3.9,3.32,8.38,3.39,13.45l-4.64,1.58c0,4.7-.94,8.88-2.83,12.53-1.89,3.65-4.5,6.51-7.84,8.58-3.34,2.07-7.18,3.11-11.51,3.11Zm1.11,19.86c-4.7,0-8.92-.9-12.67-2.69-3.74-1.79-6.88-4.3-9.42-7.51-.68-.81-.96-1.69-.84-2.64,.12-.96,.62-1.72,1.48-2.28,.93-.62,1.92-.83,2.97-.65,1.05,.19,1.89,.71,2.51,1.58,1.73,2.16,3.96,3.9,6.68,5.2,2.72,1.3,5.88,1.95,9.46,1.95,3.28,0,6.28-.79,9-2.37,2.72-1.58,4.87-3.85,6.45-6.82,1.58-2.97,2.37-6.49,2.37-10.58v-13.73l2.78-6.31,4.92,1.21v19.3c0,4.95-1.11,9.42-3.34,13.41-2.23,3.99-5.26,7.14-9.09,9.46-3.84,2.32-8.26,3.48-13.27,3.48Zm0-26.91c3.52,0,6.63-.8,9.33-2.41,2.69-1.61,4.81-3.82,6.36-6.63,1.55-2.81,2.32-6.05,2.32-9.7s-.78-6.89-2.32-9.74c-1.55-2.85-3.66-5.07-6.36-6.68-2.69-1.61-5.8-2.42-9.33-2.42s-6.65,.81-9.37,2.42c-2.72,1.61-4.87,3.83-6.45,6.68-1.58,2.85-2.37,6.09-2.37,9.74s.79,6.88,2.37,9.7c1.58,2.81,3.72,5.03,6.45,6.63,2.72,1.61,5.85,2.41,9.37,2.41Z" style="fill:#fff;"/><path d="M407.35,194.97c-4.7,0-8.91-1.13-12.62-3.39-3.71-2.26-6.65-5.34-8.81-9.23-2.17-3.9-3.25-8.29-3.25-13.18s1.13-9.37,3.39-13.27c2.26-3.9,5.34-6.97,9.23-9.23,3.9-2.26,8.29-3.39,13.18-3.39s9.17,1.13,13.04,3.39c3.87,2.26,6.93,5.34,9.19,9.23,2.26,3.9,3.42,8.32,3.48,13.27l-3.15,1.58c0,4.58-1.04,8.69-3.11,12.34-2.07,3.65-4.89,6.54-8.44,8.68s-7.59,3.2-12.11,3.2Zm1.11-7.05c3.46,0,6.54-.82,9.23-2.46,2.69-1.64,4.83-3.88,6.4-6.73,1.58-2.84,2.37-6.03,2.37-9.56s-.79-6.79-2.37-9.6c-1.58-2.81-3.71-5.06-6.4-6.73-2.69-1.67-5.77-2.51-9.23-2.51s-6.48,.84-9.23,2.51c-2.75,1.67-4.93,3.91-6.54,6.73-1.61,2.82-2.41,6.02-2.41,9.6s.8,6.71,2.41,9.56c1.61,2.85,3.79,5.09,6.54,6.73,2.75,1.64,5.83,2.46,9.23,2.46Zm21.71,6.59c-1.11,0-2.06-.35-2.83-1.07-.77-.71-1.16-1.66-1.16-2.83v-15.31l1.76-8.07,6.22,1.95v21.43c0,1.17-.37,2.12-1.11,2.83-.74,.71-1.7,1.07-2.88,1.07Z" style="fill:#fff;"/><path d="M349.38,51.28c-9.04,0-16.97,4.81-21.49,12.02-4.52-7.21-12.45-12.02-21.49-12.02-6.79,0-12.95,2.72-17.52,7.13v-3.16c0-2.19-1.78-3.97-3.97-3.97s-3.97,1.78-3.97,3.97v58.34c0,2.19,1.78,3.97,3.97,3.97s3.97-1.78,3.97-3.97v-36.52c0-9.84,7.86-17.85,17.52-17.85s17.52,8.01,17.52,17.85v36.52c0,2.19,1.78,3.97,3.97,3.97s3.97-1.78,3.97-3.97v-36.52c0-9.84,7.86-17.85,17.52-17.85s17.52,8.01,17.52,17.85v36.52c0,2.19,1.78,3.97,3.97,3.97s3.97-1.78,3.97-3.97v-36.52c0-14.22-11.42-25.78-25.45-25.78Z" style="fill:#fff;"/><path d="M349.38,128.25c-9.04,0-16.97,4.81-21.49,12.02-4.52-7.21-12.45-12.02-21.49-12.02-6.79,0-12.95,2.72-17.52,7.13v-3.16c0-2.19-1.78-3.97-3.97-3.97s-3.97,1.78-3.97,3.97v58.34c0,2.19,1.78,3.97,3.97,3.97s3.97-1.78,3.97-3.97v-36.52c0-9.84,7.86-17.85,17.52-17.85s17.52,8.01,17.52,17.85v36.52c0,2.19,1.78,3.97,3.97,3.97s3.97-1.78,3.97-3.97v-36.52c0-9.84,7.86-17.85,17.52-17.85s17.52,8.01,17.52,17.85v36.52c0,2.19,1.78,3.97,3.97,3.97s3.97-1.78,3.97-3.97v-36.52c0-14.22-11.42-25.78-25.45-25.78Z" style="fill:#fff;"/><path d="M447.24,219.03c-1.24,0-2.21-.36-2.92-1.07-.71-.71-1.07-1.69-1.07-2.92v-46.14c.06-4.82,1.22-9.17,3.48-13.04,2.26-3.87,5.3-6.93,9.14-9.19,3.83-2.26,8.16-3.39,12.99-3.39s9.36,1.13,13.22,3.39c3.87,2.26,6.93,5.34,9.19,9.23,2.26,3.9,3.39,8.32,3.39,13.27s-1.07,9.28-3.2,13.18c-2.13,3.9-5.06,6.98-8.77,9.23-3.71,2.26-7.92,3.39-12.62,3.39-4.02,0-7.67-.85-10.95-2.55-3.28-1.7-5.94-3.94-7.98-6.73v29.35c0,1.24-.37,2.21-1.11,2.92-.74,.71-1.67,1.07-2.78,1.07Zm21.62-31.11c3.46,0,6.57-.82,9.33-2.46,2.75-1.64,4.92-3.88,6.49-6.73,1.58-2.84,2.37-6.03,2.37-9.56s-.79-6.79-2.37-9.6c-1.58-2.81-3.74-5.06-6.49-6.73-2.75-1.67-5.86-2.51-9.33-2.51s-6.39,.84-9.14,2.51c-2.75,1.67-4.9,3.91-6.45,6.73-1.55,2.82-2.32,6.02-2.32,9.6s.77,6.71,2.32,9.56c1.55,2.85,3.68,5.09,6.4,6.73,2.72,1.64,5.78,2.46,9.19,2.46Z" style="fill:#fff;"/></svg>
