<?xml version="1.0" encoding="utf-8"?>
<!-- Generator: Adobe Illustrator 27.0.1, SVG Export Plug-In . SVG Version: 6.00 Build 0)  -->
<svg version="1.1" id="Calque_1" xmlns="http://www.w3.org/2000/svg" xmlns:xlink="http://www.w3.org/1999/xlink" x="0px" y="0px"
	 viewBox="0 0 552.8 249.4" style="enable-background:new 0 0 552.8 249.4;" xml:space="preserve">
<style type="text/css">
	.st0{fill:url(#SVGID_1_);}
	.st1{fill:url(#SVGID_00000163778018971730906090000000544084178571715996_);}
	.st2{fill:url(#SVGID_00000022544270813931881270000011492341882311632567_);}
	.st3{fill:url(#SVGID_00000096754427141838306900000002658116466743176579_);}
	.st4{fill:url(#SVGID_00000124865182259940840670000004926578558271139216_);}
	.st5{fill:url(#SVGID_00000150060731160634090100000015073710998325048193_);}
	.st6{fill:url(#SVGID_00000003813228378383479870000015934204243718145707_);}
	.st7{fill:url(#SVGID_00000122717003861956916150000013199580943719934637_);}
	.st8{fill:url(#SVGID_00000075124733281985115130000007166608457630690449_);}
	.st9{fill:url(#SVGID_00000010999838920157192280000013838214290465199492_);}
</style>
<linearGradient id="SVGID_1_" gradientUnits="userSpaceOnUse" x1="408.425" y1="102.58" x2="408.425" y2="154.27" gradientTransform="matrix(1 0 0 -1 0 249.89)">
	<stop  offset="0.155" style="stop-color:#585857"/>
	<stop  offset="0.7" style="stop-color:#898989"/>
</linearGradient>
<path class="st0" d="M407.4,117.6c-4.7,0-8.9-1.1-12.6-3.4s-6.6-5.3-8.8-9.2c-2.2-3.9-3.2-8.3-3.2-13.2s1.1-9.4,3.4-13.3
	c2.3-3.9,5.3-7,9.2-9.2c3.9-2.3,8.3-3.4,13.2-3.4s9.2,1.1,13,3.4s6.9,5.3,9.2,9.2c2.3,3.9,3.4,8.3,3.5,13.3l-3.1,1.6
	c0,4.6-1,8.7-3.1,12.3c-2.1,3.7-4.9,6.5-8.4,8.7C415.9,116.6,411.9,117.6,407.4,117.6L407.4,117.6z M408.5,110.6
	c3.5,0,6.5-0.8,9.2-2.5s4.8-3.9,6.4-6.7c1.6-2.8,2.4-6,2.4-9.6s-0.8-6.8-2.4-9.6s-3.7-5.1-6.4-6.7c-2.7-1.7-5.8-2.5-9.2-2.5
	s-6.5,0.8-9.2,2.5c-2.8,1.7-4.9,3.9-6.5,6.7c-1.6,2.8-2.4,6-2.4,9.6s0.8,6.7,2.4,9.6c1.6,2.8,3.8,5.1,6.5,6.7
	S405.1,110.6,408.5,110.6z M430.2,117.2c-1.1,0-2.1-0.3-2.8-1.1c-0.8-0.7-1.2-1.7-1.2-2.8V98l1.8-8.1l6.2,1.9v21.4
	c0,1.2-0.4,2.1-1.1,2.8S431.4,117.2,430.2,117.2L430.2,117.2z"/>
<linearGradient id="SVGID_00000183240936606651427270000010646176667161505679_" gradientUnits="userSpaceOnUse" x1="466.865" y1="112.33" x2="466.865" y2="163.64" gradientTransform="matrix(1 0 0 -1 0 249.89)">
	<stop  offset="0.155" style="stop-color:#585857"/>
	<stop  offset="0.7" style="stop-color:#898989"/>
</linearGradient>
<path style="fill:url(#SVGID_00000183240936606651427270000010646176667161505679_);" d="M447.2,117.2c-1.2,0-2.2-0.3-2.9-1.1
	c-0.7-0.7-1.1-1.7-1.1-2.8V70.4c0-1.2,0.4-2.2,1.1-2.9c0.7-0.7,1.7-1.1,2.9-1.1s2.1,0.4,2.8,1.1s1.1,1.7,1.1,2.9v42.9
	c0,1.2-0.4,2.1-1.1,2.8C449.4,116.8,448.4,117.2,447.2,117.2z M486.6,117.2c-1.2,0-2.1-0.4-2.9-1.1c-0.7-0.7-1.1-1.7-1.1-2.8V89.6
	c0-3.8-0.7-6.8-2.1-9.2c-1.4-2.4-3.3-4.2-5.7-5.4c-2.4-1.2-5.2-1.8-8.3-1.8c-2.9,0-5.5,0.6-7.8,1.7c-2.3,1.1-4.2,2.7-5.5,4.6
	s-2,4.2-2,6.7h-5.4c0.1-3.9,1.2-7.4,3.1-10.4c2-3.1,4.6-5.5,7.8-7.3s6.9-2.7,11-2.7c4.3,0,8.2,0.9,11.6,2.7c3.4,1.8,6.2,4.5,8.2,8
	c2,3.5,3,7.9,3,13v23.7c0,1.1-0.4,2-1.1,2.8S487.7,117.2,486.6,117.2L486.6,117.2z"/>
<linearGradient id="SVGID_00000152230883115736236920000014325446973022152106_" gradientUnits="userSpaceOnUse" x1="523.44" y1="88.47" x2="523.44" y2="160.02" gradientTransform="matrix(1 0 0 -1 0 249.89)">
	<stop  offset="0.155" style="stop-color:#585857"/>
	<stop  offset="0.7" style="stop-color:#898989"/>
</linearGradient>
<path style="fill:url(#SVGID_00000152230883115736236920000014325446973022152106_);" d="M522.4,117.6c-4.8,0-9.1-1.1-12.8-3.3
	c-3.7-2.2-6.6-5.2-8.7-9.1s-3.2-8.3-3.2-13.4s1.1-9.6,3.3-13.4c2.2-3.9,5.3-6.9,9.1-9.1c3.9-2.2,8.3-3.3,13.3-3.3s9.3,1.1,13.2,3.3
	c3.9,2.2,6.9,5.2,9.1,9.1s3.3,8.4,3.4,13.4l-4.6,1.6c0,4.7-0.9,8.9-2.8,12.5s-4.5,6.5-7.8,8.6S526.7,117.6,522.4,117.6L522.4,117.6z
	 M523.5,137.5c-4.7,0-8.9-0.9-12.7-2.7c-3.7-1.8-6.9-4.3-9.4-7.5c-0.7-0.8-1-1.7-0.8-2.6c0.1-1,0.6-1.7,1.5-2.3
	c0.9-0.6,1.9-0.8,3-0.7c1,0.2,1.9,0.7,2.5,1.6c1.7,2.2,4,3.9,6.7,5.2c2.7,1.3,5.9,1.9,9.5,1.9c3.3,0,6.3-0.8,9-2.4s4.9-3.8,6.5-6.8
	s2.4-6.5,2.4-10.6V96.9l2.8-6.3l4.9,1.2v19.3c0,4.9-1.1,9.4-3.3,13.4c-2.2,4-5.3,7.1-9.1,9.5C532.9,136.3,528.5,137.5,523.5,137.5
	L523.5,137.5z M523.5,110.6c3.5,0,6.6-0.8,9.3-2.4c2.7-1.6,4.8-3.8,6.4-6.6s2.3-6.1,2.3-9.7s-0.8-6.9-2.3-9.7
	c-1.5-2.8-3.7-5.1-6.4-6.7c-2.7-1.6-5.8-2.4-9.3-2.4s-6.7,0.8-9.4,2.4c-2.7,1.6-4.9,3.8-6.5,6.7c-1.6,2.8-2.4,6.1-2.4,9.7
	s0.8,6.9,2.4,9.7c1.6,2.8,3.7,5,6.5,6.6C516.8,109.8,520,110.6,523.5,110.6z"/>
<linearGradient id="SVGID_00000123402405887227116420000001861352573879230107_" gradientUnits="userSpaceOnUse" x1="408.425" y1="80.28" x2="408.425" y2="131.97" gradientTransform="matrix(1 0 0 -1 0 249.89)">
	<stop  offset="0.155" style="stop-color:#585857"/>
	<stop  offset="0.7" style="stop-color:#898989"/>
</linearGradient>
<path style="fill:url(#SVGID_00000123402405887227116420000001861352573879230107_);" d="M407.4,195c-4.7,0-8.9-1.1-12.6-3.4
	s-6.6-5.3-8.8-9.2c-2.2-3.9-3.2-8.3-3.2-13.2s1.1-9.4,3.4-13.3c2.3-3.9,5.3-7,9.2-9.2c3.9-2.3,8.3-3.4,13.2-3.4s9.2,1.1,13,3.4
	s6.9,5.3,9.2,9.2c2.3,3.9,3.4,8.3,3.5,13.3l-3.1,1.6c0,4.6-1,8.7-3.1,12.3c-2.1,3.6-4.9,6.5-8.4,8.7S411.9,195,407.4,195L407.4,195z
	 M408.5,187.9c3.5,0,6.5-0.8,9.2-2.5s4.8-3.9,6.4-6.7c1.6-2.8,2.4-6,2.4-9.6s-0.8-6.8-2.4-9.6c-1.6-2.8-3.7-5.1-6.4-6.7
	s-5.8-2.5-9.2-2.5s-6.5,0.8-9.2,2.5s-4.9,3.9-6.5,6.7c-1.6,2.8-2.4,6-2.4,9.6s0.8,6.7,2.4,9.6c1.6,2.9,3.8,5.1,6.5,6.7
	S405.1,187.9,408.5,187.9z M430.2,194.5c-1.1,0-2.1-0.4-2.8-1.1c-0.8-0.7-1.2-1.7-1.2-2.8v-15.3l1.8-8.1l6.2,1.9v21.4
	c0,1.2-0.4,2.1-1.1,2.8S431.4,194.5,430.2,194.5L430.2,194.5z"/>
<linearGradient id="SVGID_00000089566926735806031640000009907808361978833541_" gradientUnits="userSpaceOnUse" x1="327.89" y1="102.55" x2="327.89" y2="168.83" gradientTransform="matrix(1 0 0 -1 0 249.89)">
	<stop  offset="0.155" style="stop-color:#585857"/>
	<stop  offset="0.7" style="stop-color:#898989"/>
</linearGradient>
<path style="fill:url(#SVGID_00000089566926735806031640000009907808361978833541_);" d="M349.4,51.3c-9,0-17,4.8-21.5,12
	c-4.5-7.2-12.5-12-21.5-12c-6.8,0-13,2.7-17.5,7.1v-3.2c0-2.2-1.8-4-4-4s-4,1.8-4,4v58.3c0,2.2,1.8,4,4,4s4-1.8,4-4V77.1
	c0-9.8,7.9-17.8,17.5-17.8s17.5,8,17.5,17.8v36.5c0,2.2,1.8,4,4,4s4-1.8,4-4V77.1c0-9.8,7.9-17.8,17.5-17.8s17.5,8,17.5,17.8v36.5
	c0,2.2,1.8,4,4,4s4-1.8,4-4V77.1C374.8,62.8,363.4,51.3,349.4,51.3L349.4,51.3z"/>
<linearGradient id="SVGID_00000072240856299268845930000015659747999764539294_" gradientUnits="userSpaceOnUse" x1="327.89" y1="88.78" x2="327.89" y2="155.06" gradientTransform="matrix(1 0 0 -1 0 249.89)">
	<stop  offset="0.155" style="stop-color:#585857"/>
	<stop  offset="0.7" style="stop-color:#898989"/>
</linearGradient>
<path style="fill:url(#SVGID_00000072240856299268845930000015659747999764539294_);" d="M349.4,128.2c-9,0-17,4.8-21.5,12
	c-4.5-7.2-12.5-12-21.5-12c-6.8,0-13,2.7-17.5,7.1v-3.2c0-2.2-1.8-4-4-4s-4,1.8-4,4v58.3c0,2.2,1.8,4,4,4s4-1.8,4-4V154
	c0-9.8,7.9-17.9,17.5-17.9s17.5,8,17.5,17.9v36.5c0,2.2,1.8,4,4,4s4-1.8,4-4V154c0-9.8,7.9-17.9,17.5-17.9s17.5,8,17.5,17.9v36.5
	c0,2.2,1.8,4,4,4s4-1.8,4-4V154C374.8,139.8,363.4,128.3,349.4,128.2L349.4,128.2z"/>
<linearGradient id="SVGID_00000041999952170852181070000004605967548067662735_" gradientUnits="userSpaceOnUse" x1="468.955" y1="71.22" x2="468.955" y2="146.97" gradientTransform="matrix(1 0 0 -1 0 249.89)">
	<stop  offset="0.155" style="stop-color:#585857"/>
	<stop  offset="0.7" style="stop-color:#898989"/>
</linearGradient>
<path style="fill:url(#SVGID_00000041999952170852181070000004605967548067662735_);" d="M447.2,219c-1.2,0-2.2-0.4-2.9-1.1
	c-0.7-0.7-1.1-1.7-1.1-2.9v-46.1c0.1-4.8,1.2-9.2,3.5-13s5.3-6.9,9.1-9.2c3.8-2.3,8.2-3.4,13-3.4s9.4,1.1,13.2,3.4
	c3.9,2.3,6.9,5.3,9.2,9.2c2.3,3.9,3.4,8.3,3.4,13.3s-1.1,9.3-3.2,13.2c-2.1,3.9-5.1,7-8.8,9.2c-3.7,2.3-7.9,3.4-12.6,3.4
	c-4,0-7.7-0.9-11-2.6s-5.9-3.9-8-6.7V215c0,1.2-0.4,2.2-1.1,2.9C449.3,218.7,448.4,219,447.2,219L447.2,219z M468.9,187.9
	c3.5,0,6.6-0.8,9.3-2.5c2.8-1.6,4.9-3.9,6.5-6.7c1.6-2.8,2.4-6,2.4-9.6s-0.8-6.8-2.4-9.6c-1.6-2.8-3.7-5.1-6.5-6.7s-5.9-2.5-9.3-2.5
	s-6.4,0.8-9.1,2.5s-4.9,3.9-6.5,6.7c-1.5,2.8-2.3,6-2.3,9.6s0.8,6.7,2.3,9.6c1.5,2.9,3.7,5.1,6.4,6.7S465.4,187.9,468.9,187.9
	L468.9,187.9z"/>
<linearGradient id="SVGID_00000057126319859708869690000007889891938062411431_" gradientUnits="userSpaceOnUse" x1="125.5654" y1="24.4098" x2="125.5654" y2="238.1198" gradientTransform="matrix(1 0 0 -1 0 249.89)">
	<stop  offset="0.15" style="stop-color:#4D4D4D"/>
	<stop  offset="0.71" style="stop-color:#6C6C6C"/>
</linearGradient>
<path style="fill:url(#SVGID_00000057126319859708869690000007889891938062411431_);" d="M41.6,120.4c18.5-4,18-11.1,30.3-13.7
	c14.8-3.2,15.8,0.6,25.2,0.6c5.7,0,9-2.9,12.4-1.1c2.4,1.3,4.5,3.7,5.2,5.8c0.1,0.8,0.2,1.6,0.2,2.4c1.2,11.3,2.7,26.4,3.3,42.8
	c-34.1,0.9-59.9,12.1-77.2,33.3c1.8,2.3,3.7,4.6,5.7,6.8c15.7-20,39.8-30.6,71.7-31.5c0.1,3.5,0.1,7.1,0,10.7
	c-20.9,5.7-40.9,21.1-50.5,38.6c2.4,1.6,4.9,3,7.4,4.4c8-14.8,25.1-28.3,42.8-33.9c-0.3,7.6-1,15.2-2,22.7
	c-10.2,2.5-17.1,8.6-21.6,19.3c2.8,0.9,5.6,1.6,8.5,2.2c2.7-5.9,6.3-9.8,11.5-11.9c-0.9,4.6-2,9-3.3,13.3c4.8,0.7,9.7,1,14.6,1
	c0.9,0,1.7,0,2.6-0.1c4.5-16.8,6.4-35.1,6.8-52.8c5.7,1.8,10.7,5.2,15,10.2c7.5,8.8,12.2,22.3,12.8,36.1c2.9-1.1,5.7-2.2,8.4-3.5
	c-0.8-9.6-3.3-18.9-7.3-26.9c11.2,1.8,19.8,7.1,25.9,15.7c2.3-1.7,4.5-3.6,6.7-5.5c-8.7-12-21.8-18.7-38.4-19.5
	c-0.5-0.7-1.1-1.3-1.6-2c-5.9-6.9-13.3-11.4-21.5-13.5c0-6.9-0.2-13.6-0.6-20.1c32.8,2.7,57.6,17,74.1,42.6c1.9-2.4,3.8-4.8,5.5-7.3
	c-18.1-26.4-45.4-41.4-80.1-44c-0.8-11-1.8-20.9-2.6-28.9c-0.1-0.8-0.2-1.5-0.2-2.3c0,0,0,0,0,0c-0.3-2.5-0.2-5.8,0-7.4
	c1.5-2,4.2-3.1,9.2-0.9c4.7,2,11.2,6.2,23.6,3.1c10.4-2.6,10.3-1.4,21.1,2.9c11.2,4.5,35.7,6.9,46.6-1.1
	c-8.6-50.9-52.8-89.6-106.1-89.6s-100.6,41.5-106.8,95C19.9,119,30.4,122.9,41.6,120.4L41.6,120.4z"/>
<linearGradient id="SVGID_00000075149347826641177190000006590950756840243590_" gradientUnits="userSpaceOnUse" x1="125.96" y1="2.7754" x2="125.96" y2="247.5649" gradientTransform="matrix(1 0 0 -1 0 249.89)">
	<stop  offset="0.155" style="stop-color:#585857"/>
	<stop  offset="0.7" style="stop-color:#898989"/>
</linearGradient>
<path style="fill:url(#SVGID_00000075149347826641177190000006590950756840243590_);" d="M126,247.1c-67.5,0-122.4-54.9-122.4-122.4
	C3.6,57.2,58.5,2.3,126,2.3s122.4,54.9,122.4,122.4C248.4,192.2,193.4,247.1,126,247.1z M126,13.1c-61.5,0-111.6,50.1-111.6,111.6
	S64.4,236.3,126,236.3c61.5,0,111.6-50.1,111.6-111.6S187.5,13.1,126,13.1z"/>
<linearGradient id="SVGID_00000020380165198829600980000013641799624099130547_" gradientUnits="userSpaceOnUse" x1="125.5654" y1="24.4098" x2="125.5654" y2="238.1198" gradientTransform="matrix(1 0 0 -1 0 249.89)">
	<stop  offset="0.15" style="stop-color:#585857"/>
	<stop  offset="0.71" style="stop-color:#898989"/>
</linearGradient>
<path style="fill:url(#SVGID_00000020380165198829600980000013641799624099130547_);" d="M41.6,120.4c18.5-4,18-11.1,30.3-13.7
	c14.8-3.2,15.8,0.6,25.2,0.6c5.7,0,9-2.9,12.4-1.1c2.4,1.3,4.5,3.7,5.2,5.8c0.1,0.8,0.2,1.6,0.2,2.4c1.2,11.3,2.7,26.4,3.3,42.8
	c-34.1,0.9-59.9,12.1-77.2,33.3c1.8,2.3,3.7,4.6,5.7,6.8c15.7-20,39.8-30.6,71.7-31.5c0.1,3.5,0.1,7.1,0,10.7
	c-20.9,5.7-40.9,21.1-50.5,38.6c2.4,1.6,4.9,3,7.4,4.4c8-14.8,25.1-28.3,42.8-33.9c-0.3,7.6-1,15.2-2,22.7
	c-10.2,2.5-17.1,8.6-21.6,19.3c2.8,0.9,5.6,1.6,8.5,2.2c2.7-5.9,6.3-9.8,11.5-11.9c-0.9,4.6-2,9-3.3,13.3c4.8,0.7,9.7,1,14.6,1
	c0.9,0,1.7,0,2.6-0.1c4.5-16.8,6.4-35.1,6.8-52.8c5.7,1.8,10.7,5.2,15,10.2c7.5,8.8,12.2,22.3,12.8,36.1c2.9-1.1,5.7-2.2,8.4-3.5
	c-0.8-9.6-3.3-18.9-7.3-26.9c11.2,1.8,19.8,7.1,25.9,15.7c2.3-1.7,4.5-3.6,6.7-5.5c-8.7-12-21.8-18.7-38.4-19.5
	c-0.5-0.7-1.1-1.3-1.6-2c-5.9-6.9-13.3-11.4-21.5-13.5c0-6.9-0.2-13.6-0.6-20.1c32.8,2.7,57.6,17,74.1,42.6c1.9-2.4,3.8-4.8,5.5-7.3
	c-18.1-26.4-45.4-41.4-80.1-44c-0.8-11-1.8-20.9-2.6-28.9c-0.1-0.8-0.2-1.5-0.2-2.3c0,0,0,0,0,0c-0.3-2.5-0.2-5.8,0-7.4
	c1.5-2,4.2-3.1,9.2-0.9c4.7,2,11.2,6.2,23.6,3.1c10.4-2.6,10.3-1.4,21.1,2.9c11.2,4.5,35.7,6.9,46.6-1.1
	c-8.6-50.9-52.8-89.6-106.1-89.6s-100.6,41.5-106.8,95C19.9,119,30.4,122.9,41.6,120.4L41.6,120.4z"/>
</svg>
