<?xml version="1.0" encoding="utf-8"?>
<!-- Generator: Adobe Illustrator 27.0.1, SVG Export Plug-In . SVG Version: 6.00 Build 0)  -->
<svg version="1.1" id="Calque_1" xmlns="http://www.w3.org/2000/svg" xmlns:xlink="http://www.w3.org/1999/xlink" x="0px" y="0px"
	 viewBox="0 0 255.1 255.1" style="enable-background:new 0 0 255.1 255.1;" xml:space="preserve">
<style type="text/css">
	.st0{fill:url(#SVGID_1_);}
	.st1{fill:none;stroke:url(#SVGID_00000150095504351645228280000009047497762916587175_);stroke-width:10.79;stroke-miterlimit:10;}
	.st2{fill:url(#SVGID_00000116206968280412319070000005763255993774611099_);}
	.st3{fill:url(#SVGID_00000007419142559890534670000014962473405967599262_);}
</style>
<linearGradient id="SVGID_1_" gradientUnits="userSpaceOnUse" x1="127.165" y1="27.57" x2="127.165" y2="241.28" gradientTransform="matrix(1 0 0 -1 0 255.89)">
	<stop  offset="0.15" style="stop-color:#4261A6"/>
	<stop  offset="0.28" style="stop-color:#496D8D"/>
	<stop  offset="0.71" style="stop-color:#62923F"/>
</linearGradient>
<path class="st0" d="M43.2,123.3c18.5-4,18-11.1,30.3-13.7c14.8-3.2,15.8,0.6,25.2,0.6c5.7,0,9-2.9,12.4-1.1
	c2.4,1.3,4.5,3.7,5.2,5.8c0.1,0.8,0.2,1.6,0.2,2.4c1.2,11.3,2.7,26.4,3.3,42.8C85.8,161,60,172.1,42.7,193.3
	c1.8,2.3,3.7,4.6,5.7,6.8c15.7-20,39.8-30.6,71.7-31.5c0.1,3.5,0.1,7.1,0,10.7C99.3,185,79.2,200.5,69.6,218c2.4,1.6,4.9,3,7.4,4.4
	c8-14.8,25.1-28.3,42.8-33.9c-0.3,7.6-1,15.2-2,22.7c-10.2,2.5-17.1,8.6-21.6,19.3c2.8,0.9,5.6,1.6,8.5,2.2
	c2.7-5.9,6.3-9.8,11.5-11.9c-0.9,4.6-2,9-3.3,13.3c4.8,0.7,9.7,1,14.6,1c0.9,0,1.7,0,2.6-0.1c4.5-16.8,6.4-35.1,6.8-52.8
	c5.7,1.8,10.7,5.2,15,10.2c7.5,8.8,12.2,22.3,12.8,36.1c2.9-1.1,5.7-2.2,8.4-3.5c-0.8-9.6-3.3-18.9-7.3-26.9
	c11.2,1.8,19.8,7.1,25.9,15.7c2.3-1.7,4.5-3.6,6.7-5.5c-8.7-12-21.8-18.7-38.4-19.5c-0.5-0.7-1.1-1.3-1.6-2
	c-5.9-6.9-13.3-11.4-21.5-13.5c0-6.9-0.2-13.6-0.6-20.1c32.8,2.7,57.6,17,74.1,42.6c1.9-2.4,3.8-4.8,5.5-7.3
	c-18.1-26.4-45.4-41.4-80.1-44c-0.8-11-1.8-20.9-2.6-28.9c-0.1-0.8-0.2-1.5-0.2-2.3c0,0,0,0,0,0c-0.3-2.5-0.2-5.8,0-7.4
	c1.5-2,4.2-3.1,9.2-0.9c4.7,2,11.2,6.2,23.6,3.1c10.4-2.6,10.3-1.4,21.1,2.9c11.2,4.5,35.7,6.9,46.6-1.1
	c-8.6-50.9-52.8-89.6-106.1-89.6S27,61.6,20.7,115.1C21.5,121.8,32,125.7,43.2,123.3L43.2,123.3z"/>
<linearGradient id="SVGID_00000089554925307413835640000012274595383214083755_" gradientUnits="userSpaceOnUse" x1="127.56" y1="5.935" x2="127.56" y2="250.725" gradientTransform="matrix(1 0 0 -1 0 255.89)">
	<stop  offset="0" style="stop-color:#3E5A9B"/>
	<stop  offset="0.19" style="stop-color:#456589"/>
	<stop  offset="1" style="stop-color:#62923F"/>
</linearGradient>
<circle style="fill:none;stroke:url(#SVGID_00000089554925307413835640000012274595383214083755_);stroke-width:10.79;stroke-miterlimit:10;" cx="127.6" cy="127.6" r="117"/>
<linearGradient id="SVGID_00000117659204057617545250000012232892471458248105_" gradientUnits="userSpaceOnUse" x1="127.165" y1="27.57" x2="127.165" y2="241.28" gradientTransform="matrix(1 0 0 -1 0 255.89)">
	<stop  offset="0.15" style="stop-color:#4261A6"/>
	<stop  offset="0.28" style="stop-color:#496D8D"/>
	<stop  offset="0.71" style="stop-color:#62923F"/>
</linearGradient>
<path style="fill:url(#SVGID_00000117659204057617545250000012232892471458248105_);" d="M43.2,123.3c18.5-4,18-11.1,30.3-13.7
	c14.8-3.2,15.8,0.6,25.2,0.6c5.7,0,9-2.9,12.4-1.1c2.4,1.3,4.5,3.7,5.2,5.8c0.1,0.8,0.2,1.6,0.2,2.4c1.2,11.3,2.7,26.4,3.3,42.8
	C85.8,161,60,172.1,42.7,193.3c1.8,2.3,3.7,4.6,5.7,6.8c15.7-20,39.8-30.6,71.7-31.5c0.1,3.5,0.1,7.1,0,10.7
	C99.3,185,79.2,200.5,69.6,218c2.4,1.6,4.9,3,7.4,4.4c8-14.8,25.1-28.3,42.8-33.9c-0.3,7.6-1,15.2-2,22.7
	c-10.2,2.5-17.1,8.6-21.6,19.3c2.8,0.9,5.6,1.6,8.5,2.2c2.7-5.9,6.3-9.8,11.5-11.9c-0.9,4.6-2,9-3.3,13.3c4.8,0.7,9.7,1,14.6,1
	c0.9,0,1.7,0,2.6-0.1c4.5-16.8,6.4-35.1,6.8-52.8c5.7,1.8,10.7,5.2,15,10.2c7.5,8.8,12.2,22.3,12.8,36.1c2.9-1.1,5.7-2.2,8.4-3.5
	c-0.8-9.6-3.3-18.9-7.3-26.9c11.2,1.8,19.8,7.1,25.9,15.7c2.3-1.7,4.5-3.6,6.7-5.5c-8.7-12-21.8-18.7-38.4-19.5
	c-0.5-0.7-1.1-1.3-1.6-2c-5.9-6.9-13.3-11.4-21.5-13.5c0-6.9-0.2-13.6-0.6-20.1c32.8,2.7,57.6,17,74.1,42.6c1.9-2.4,3.8-4.8,5.5-7.3
	c-18.1-26.4-45.4-41.4-80.1-44c-0.8-11-1.8-20.9-2.6-28.9c-0.1-0.8-0.2-1.5-0.2-2.3c0,0,0,0,0,0c-0.3-2.5-0.2-5.8,0-7.4
	c1.5-2,4.2-3.1,9.2-0.9c4.7,2,11.2,6.2,23.6,3.1c10.4-2.6,10.3-1.4,21.1,2.9c11.2,4.5,35.7,6.9,46.6-1.1
	c-8.6-50.9-52.8-89.6-106.1-89.6S27,61.6,20.7,115.1C21.5,121.8,32,125.7,43.2,123.3L43.2,123.3z"/>
<linearGradient id="SVGID_00000137120072682577866850000007977750430300547221_" gradientUnits="userSpaceOnUse" x1="127.5596" y1="5.9355" x2="127.5596" y2="250.7251" gradientTransform="matrix(1 0 0 -1 0 255.89)">
	<stop  offset="0" style="stop-color:#3E5A9B"/>
	<stop  offset="0.19" style="stop-color:#456589"/>
	<stop  offset="1" style="stop-color:#62923F"/>
</linearGradient>
<path style="fill:url(#SVGID_00000137120072682577866850000007977750430300547221_);" d="M127.6,250C60.1,250,5.2,195,5.2,127.6
	C5.2,60.1,60.1,5.2,127.6,5.2S250,60.1,250,127.6C250,195,195,250,127.6,250z M127.6,16C66,16,16,66,16,127.6S66,239.2,127.6,239.2
	c61.5,0,111.6-50.1,111.6-111.6S189.1,16,127.6,16z"/>
</svg>
