<?xml version="1.0" encoding="UTF-8"?><svg id="Calque_1" xmlns="http://www.w3.org/2000/svg" xmlns:xlink="http://www.w3.org/1999/xlink" viewBox="0 0 255.12 255.12"><defs><linearGradient id="Dégradé_MangMap" x1="127.18" y1="228.32" x2="127.18" y2="14.61" gradientUnits="userSpaceOnUse"><stop offset=".15" stop-color="#4160a5"/><stop offset=".28" stop-color="#486c8c"/><stop offset=".71" stop-color="#61923f"/></linearGradient><linearGradient id="Dégradé_sans_nom_42" x1="127.56" y1="249.95" x2="127.56" y2="5.17" gradientUnits="userSpaceOnUse"><stop offset="0" stop-color="#3d599a"/><stop offset=".19" stop-color="#446488"/><stop offset="1" stop-color="#61923f"/></linearGradient></defs><path d="M43.22,123.27c18.47-3.97,18.04-11.08,30.31-13.72,14.75-3.17,15.75,.59,25.24,.59,5.74,0,8.97-2.92,12.38-1.1,2.38,1.27,4.47,3.71,5.18,5.8,.08,.78,.16,1.55,.24,2.36,1.15,11.31,2.67,26.36,3.31,42.84-34.05,.93-59.9,12.08-77.17,33.3,1.81,2.33,3.7,4.6,5.69,6.78,15.67-20.01,39.78-30.59,71.72-31.46,.06,3.52,.07,7.09,.03,10.68-20.87,5.69-40.9,21.14-50.51,38.65,2.41,1.55,4.88,3.03,7.42,4.39,8.01-14.79,25.06-28.3,42.82-33.94-.33,7.59-.98,15.21-2.04,22.66-10.24,2.51-17.1,8.62-21.59,19.27,2.78,.85,5.61,1.58,8.47,2.2,2.73-5.95,6.35-9.76,11.5-11.9-.9,4.57-2.01,9.02-3.3,13.34,4.79,.66,9.67,1.02,14.63,1.02,.86,0,1.7-.04,2.56-.06,4.53-16.82,6.41-35.12,6.8-52.83,5.7,1.81,10.74,5.19,15.03,10.19,7.54,8.77,12.21,22.29,12.78,36.07,2.87-1.06,5.67-2.25,8.41-3.54-.78-9.62-3.27-18.92-7.28-26.91,11.16,1.82,19.83,7.09,25.91,15.72,2.31-1.73,4.53-3.57,6.69-5.48-8.68-12-21.75-18.69-38.38-19.51-.52-.67-1.05-1.34-1.59-1.98-5.92-6.88-13.26-11.45-21.5-13.5-.03-6.88-.24-13.61-.58-20.06,32.77,2.67,57.62,16.98,74.07,42.64,1.94-2.36,3.77-4.8,5.5-7.32-18.09-26.37-45.45-41.45-80.1-44.03-.75-10.97-1.76-20.86-2.57-28.93-.08-.79-.16-1.54-.23-2.3,0,0,0-.01,0-.02-.26-2.53-.17-5.75,.02-7.37,1.46-1.97,4.23-3.07,9.17-.93,4.73,2.04,11.22,6.23,23.64,3.08,10.36-2.63,10.28-1.45,21.11,2.88,11.18,4.47,35.69,6.91,46.6-1.09-8.55-50.87-52.77-89.64-106.07-89.64S26.95,61.63,20.72,115.12c.8,6.68,11.24,10.57,22.5,8.14Z" style="fill:url(#Dégradé_MangMap);"/><circle cx="127.56" cy="127.56" r="117" style="fill:none; stroke:url(#Dégradé_sans_nom_42); stroke-miterlimit:10; stroke-width:10.79px;"/><path d="M43.22,123.27c18.47-3.97,18.04-11.08,30.31-13.72,14.75-3.17,15.75,.59,25.24,.59,5.74,0,8.97-2.92,12.38-1.1,2.38,1.27,4.47,3.71,5.18,5.8,.08,.78,.16,1.55,.24,2.36,1.15,11.31,2.67,26.36,3.31,42.84-34.05,.93-59.9,12.08-77.17,33.3,1.81,2.33,3.7,4.6,5.69,6.78,15.67-20.01,39.78-30.59,71.72-31.46,.06,3.52,.07,7.09,.03,10.68-20.87,5.69-40.9,21.14-50.51,38.65,2.41,1.55,4.88,3.03,7.42,4.39,8.01-14.79,25.06-28.3,42.82-33.94-.33,7.59-.98,15.21-2.04,22.66-10.24,2.51-17.1,8.62-21.59,19.27,2.78,.85,5.61,1.58,8.47,2.2,2.73-5.95,6.35-9.76,11.5-11.9-.9,4.57-2.01,9.02-3.3,13.34,4.79,.66,9.67,1.02,14.63,1.02,.86,0,1.7-.04,2.56-.06,4.53-16.82,6.41-35.12,6.8-52.83,5.7,1.81,10.74,5.19,15.03,10.19,7.54,8.77,12.21,22.29,12.78,36.07,2.87-1.06,5.67-2.25,8.41-3.54-.78-9.62-3.27-18.92-7.28-26.91,11.16,1.82,19.83,7.09,25.91,15.72,2.31-1.73,4.53-3.57,6.69-5.48-8.68-12-21.75-18.69-38.38-19.51-.52-.67-1.05-1.34-1.59-1.98-5.92-6.88-13.26-11.45-21.5-13.5-.03-6.88-.24-13.61-.58-20.06,32.77,2.67,57.62,16.98,74.07,42.64,1.94-2.36,3.77-4.8,5.5-7.32-18.09-26.37-45.45-41.45-80.1-44.03-.75-10.97-1.76-20.86-2.57-28.93-.08-.79-.16-1.54-.23-2.3,0,0,0-.01,0-.02-.26-2.53-.17-5.75,.02-7.37,1.46-1.97,4.23-3.07,9.17-.93,4.73,2.04,11.22,6.23,23.64,3.08,10.36-2.63,10.28-1.45,21.11,2.88,11.18,4.47,35.69,6.91,46.6-1.09-8.55-50.87-52.77-89.64-106.07-89.64S26.95,61.63,20.72,115.12c.8,6.68,11.24,10.57,22.5,8.14Z" style="fill:#fff;"/><circle cx="127.56" cy="127.56" r="117" style="fill:none; stroke:#fff; stroke-miterlimit:10; stroke-width:10.79px;"/></svg>
